# xmcd
#
# Track frame offsets:
# 150
# 17556
# 30836
# 46961
# 64722
# 77485
# 91813
# 107679
# 126856
# 140857
# 158192
# 167569
# 194526
# 215084
# 227243
# 249904
# 283117
#
# Disc length: 3987 seconds
#
# Revision: 1
# Processed by: cddbd v1.4PL0 Copyright (c) Steve Scherf et al.
# Submitted via: CedeCatalogueitor 2.5 http://usuarios.lycos.es/kakasboy
#
DISCID=e40f9111
DTITLE=Various Artist - The  Lord Of The Rings. The Fellowship Of The Ring
DYEAR=2001
DGENRE=B.S.O
TTITLE0=The Prophecy
TTITLE1=Concerning Hobbits
TTITLE2=The Shadow Of The Past
TTITLE3=The Treason Of Isengard
TTITLE4=The Black Rider
TTITLE5=At The Sign Of The Prancing Pony
TTITLE6=A knife In The Dark
TTITLE7=Flight To The Ford
TTITLE8=Many Meetings
TTITLE9=The Council Of Elrond (Featuring Aniron, Theme For Aragorn and Arwen, By Enya)
TTITLE10=The Ring Goes South
TTITLE11=A Journey In The Dark
TTITLE12=The Bridge Of Khazad Dum
TTITLE13=Lothlorien
TTITLE14=The Great River
TTITLE15=The Breaking Of The Fellowship
TTITLE16=May It Be
EXTD=
EXTT0=
EXTT1=
EXTT2=
EXTT3=
EXTT4=
EXTT5=
EXTT6=
EXTT7=
EXTT8=
EXTT9=
EXTT10=
EXTT11=
EXTT12=
EXTT13=
EXTT14=
EXTT15=
EXTT16=
PLAYORDER=
